<svg width="400" height="80" viewBox="0 0 400 80" xmlns="http://www.w3.org/2000/svg">
  <!-- WhatsApp green circle -->
  <circle cx="40" cy="40" r="35" fill="#25D366"/>
  
  <!-- WhatsApp phone icon - centered and much larger -->
  <path d="M40 15c-13.8 0-25 11.2-25 25 0 4.4 1.3 8.5 3.1 12l-3.1 12 12-3.1c3.5 1.9 7.6 3.1 12 3.1 13.8 0 25-11.2 25-25s-11.2-25-25-25zm13 35.3c-.6 1.5-3.1 3.1-4.3 3.1-1.1 0-2.5 0-3.8-1-4.3-2.1-8.9-5.3-12-9.6-1.5-2.1-2.5-4.6-2.5-7.4 0-2.1 1-4.3 2.5-5.6.6-.6 1.3-.6 1.8-.6h1.3c.4 0 1 0 1.3 1l1.8 4.3c.4.6.4 1.3 0 1.8l-1 1c-.4.4-.6.6-.4 1.3 1.3 2.5 2.8 4.3 5.3 5.6.6.4 1.3.4 1.5-.4l1-1c.6-.6 1.3-.4 1.8 0l4.3 2.1c.6.4 1 .6 1 1.3-.4.6-.4 1.3-1 1.5z" fill="white"/>
  
  <!-- Text -->
  <text x="90" y="32" font-family="Arial, sans-serif" font-size="24" font-weight="bold" fill="#2D3748">WhatsApp SDK</text>
  <text x="90" y="56" font-family="Arial, sans-serif" font-size="16" fill="#718096">Documentation</text>
</svg>